<?xml version="1.0" encoding="utf-8"?>
<!-- Generator: Adobe Illustrator 17.0.0, SVG Export Plug-In . SVG Version: 6.00 Build 0)  -->
<!DOCTYPE svg PUBLIC "-//W3C//DTD SVG 1.1//EN" "http://www.w3.org/Graphics/SVG/1.1/DTD/svg11.dtd">
<svg version="1.1" id="Capa_1" xmlns="http://www.w3.org/2000/svg" xmlns:xlink="http://www.w3.org/1999/xlink" x="0px" y="0px"
	 width="278.25px" height="81px" viewBox="0 0 278.25 81" enable-background="new 0 0 278.25 81" xml:space="preserve">
<g>
	<g>
		<g>
			<g>
				<linearGradient id="SVGID_1_" gradientUnits="userSpaceOnUse" x1="3.5851" y1="14.5417" x2="58.5067" y2="52.9981">
					<stop  offset="0" style="stop-color:#008FD3"/>
					<stop  offset="0.0139" style="stop-color:#008DD0"/>
					<stop  offset="0.2118" style="stop-color:#006EAC"/>
					<stop  offset="0.4106" style="stop-color:#00578F"/>
					<stop  offset="0.6086" style="stop-color:#00467B"/>
					<stop  offset="0.8055" style="stop-color:#003B6F"/>
					<stop  offset="1" style="stop-color:#00386B"/>
				</linearGradient>
				<path fill="url(#SVGID_1_)" d="M33.961,6.272c-5.159,0-9.97,0.457-14.319,1.359c-3.487,0.723-6.679,1.729-9.489,2.999
					c-4.806,2.155-6.804,4.283-6.884,4.376c-0.013,0.008-0.037,0.043-0.037,0.043l-0.006,0.06c-0.011,0.026-0.357,2.632-0.322,6.791
					c0.023,3.839,0.395,9.827,1.994,16.546c1.806,7.557,4.756,14.476,8.79,20.577c5.04,7.634,11.784,13.98,20.028,18.891
					c0.071,0.04,0.131,0.058,0.2,0.058c0.096,0,0.173-0.034,0.197-0.058c8.289-4.861,15.047-11.189,20.094-18.807
					c4.031-6.093,6.991-13.024,8.782-20.589c1.591-6.739,1.947-12.738,1.964-16.589c0.023-4.175-0.34-6.794-0.34-6.82l-0.006-0.06
					l-0.036-0.043c-0.084-0.093-2.069-2.221-6.846-4.376c-2.802-1.27-5.983-2.276-9.457-2.999
					C43.929,6.729,39.119,6.272,33.961,6.272L33.961,6.272z"/>
				<path fill="#FFFFFF" d="M33.961,7.032c22.183,0,29.982,8.531,29.982,8.531s5.725,40.708-29.931,61.619
					c0,0-0.042,0.031-0.096,0.031c-0.03,0-0.065-0.005-0.095-0.031C-1.687,56.085,3.892,15.564,3.892,15.564
					S11.769,7.032,33.961,7.032"/>
				<g>
					<linearGradient id="SVGID_2_" gradientUnits="userSpaceOnUse" x1="19.962" y1="41.1383" x2="61.059" y2="69.9148">
						<stop  offset="0.0788" style="stop-color:#DF040B"/>
						<stop  offset="0.2359" style="stop-color:#DC040B"/>
						<stop  offset="0.3621" style="stop-color:#D2050B"/>
						<stop  offset="0.4776" style="stop-color:#C1060B"/>
						<stop  offset="0.5866" style="stop-color:#A9080B"/>
						<stop  offset="0.6903" style="stop-color:#8B090C"/>
						<stop  offset="0.7902" style="stop-color:#660C0C"/>
						<stop  offset="0.7939" style="stop-color:#640C0C"/>
					</linearGradient>
					<path fill="url(#SVGID_2_)" d="M33.935,26.413C28.979,46.215,15.924,55.5,14.522,56.448
						c4.246,6.816,10.399,13.407,19.304,18.691c0.097,0.054,0.181,0,0.181,0c8.959-5.252,15.145-11.836,19.39-18.663
						C38.403,46.42,33.935,26.413,33.935,26.413z"/>
				</g>
				<g>
					<linearGradient id="SVGID_3_" gradientUnits="userSpaceOnUse" x1="4.4541" y1="18.8089" x2="29.5884" y2="36.4082">
						<stop  offset="0" style="stop-color:#008FD3"/>
						<stop  offset="0.0139" style="stop-color:#008DD0"/>
						<stop  offset="0.2118" style="stop-color:#006EAC"/>
						<stop  offset="0.4106" style="stop-color:#00578F"/>
						<stop  offset="0.6086" style="stop-color:#00467B"/>
						<stop  offset="0.8055" style="stop-color:#003B6F"/>
						<stop  offset="1" style="stop-color:#00386B"/>
					</linearGradient>
					<path fill="url(#SVGID_3_)" d="M33.14,9.082C12.338,9.107,5.645,17.108,5.645,17.108s-2.691,19.589,8.076,38.003
						C35.463,39.25,33.144,9.131,33.14,9.082z"/>
				</g>
				<g>
					<linearGradient id="SVGID_4_" gradientUnits="userSpaceOnUse" x1="29.6652" y1="16.2425" x2="64.4367" y2="40.5897">
						<stop  offset="0" style="stop-color:#3EA62E"/>
						<stop  offset="0.2486" style="stop-color:#3CA32D"/>
						<stop  offset="0.4482" style="stop-color:#35992B"/>
						<stop  offset="0.6309" style="stop-color:#298828"/>
						<stop  offset="0.8034" style="stop-color:#197023"/>
						<stop  offset="0.9673" style="stop-color:#04521D"/>
						<stop  offset="0.994" style="stop-color:#004C1C"/>
					</linearGradient>
					<path fill="url(#SVGID_4_)" d="M54.166,55.149l-0.182,0.369c11.001-18.491,8.205-38.41,8.205-38.41s-6.628-8.026-27.51-8.026
						C33.636,41.393,54.166,55.149,54.166,55.149z"/>
				</g>
				<g>
					<path fill="#FFFFFF" d="M6.309,32.168l7.153-4.41c0,0,1.136-0.515,2.605,0.369c1.463,0.885,10.014,5.962,10.014,5.962
						s0.301,0.169,0.491-0.126c0.216-0.338-0.162-0.533-0.162-0.533l-3.131-1.794c0,0,2.674-2.404,4.983-3.509
						c0,0,0.86-0.559,2.426,0.878l-0.104,0.342C25.337,47.47,13.899,54.662,13.899,54.662C7.403,44.202,6.309,32.168,6.309,32.168z"
						/>
					<path fill="#FFFFFF" d="M22.619,31.357c0,0,1.123-1.076,3.445-2.718l-3.491-2.497c0,0-0.847-0.49-1.67,0
						c-0.83,0.509-3.113,2.159-3.113,2.159L22.619,31.357z"/>
				</g>
				<g>
					<g>
						<g>
							<path fill="#1F140F" d="M26.943,67.082c-0.835,0-1.415-0.373-1.421-0.377l-1.073-10.619c0.711-0.01,1.154-1.11,1.159-1.121
								c1.796,1.167,4.226,1.761,7.235,1.761c4.745,0,9.332-1.503,9.378-1.519c0.263,0.843,1.204,1.09,1.213,1.092l-1.429,10.644
								c-0.669,0.077-1.267,0.113-1.785,0.113c-1.646,0-2.282-0.342-2.844-0.643c-0.298-0.16-0.556-0.299-0.928-0.364
								c-0.169-0.03-0.333-0.043-0.49-0.043c-1.01,0-1.748,0.549-1.762,0.559h0c0.006,0,0.051,0.121-0.02,0.226
								c-0.063,0.094-0.199,0.141-0.402,0.141c-0.175,0-0.307-0.05-0.392-0.147c-0.13-0.15-0.101-0.357-0.1-0.366l0,0
								c-0.015,0-0.825-0.367-1.631-0.367c-0.262,0-0.498,0.038-0.702,0.115c-1.097,0.405-2.916,0.87-3.876,0.914L26.943,67.082z"/>
							<path fill="#FFFFFF" d="M25.616,54.967c2.029,1.333,4.66,1.767,7.227,1.767c4.801,0,9.38-1.518,9.38-1.518
								c0.256,0.852,1.208,1.092,1.208,1.092l-1.436,10.633c-0.699,0.074-1.283,0.105-1.777,0.105c-2.522,0-2.698-0.817-3.77-1.006
								c-0.17-0.03-0.334-0.043-0.492-0.043c-1.029,0-1.767,0.561-1.767,0.561s0.144,0.364-0.416,0.364
								c-0.557,0-0.482-0.504-0.482-0.504s-0.816-0.377-1.64-0.377c-0.241,0-0.482,0.032-0.704,0.115
								c-1.152,0.427-2.957,0.872-3.874,0.914c-0.044,0.002-0.088,0.003-0.131,0.003c-0.841,0-1.415-0.376-1.415-0.376
								l-1.069-10.612C25.174,56.085,25.616,54.967,25.616,54.967 M25.607,54.94l-0.008,0.02c-0.004,0.011-0.445,1.106-1.142,1.106
								h-0.02l0.002,0.02l1.069,10.612l0.001,0.008l0.007,0.005c0.006,0.004,0.588,0.379,1.424,0.379
								c0.043,0,0.087-0.001,0.132-0.003c0.961-0.044,2.782-0.509,3.879-0.915c0.202-0.076,0.437-0.114,0.698-0.114
								c0.758,0,1.518,0.325,1.621,0.37c-0.005,0.05-0.012,0.227,0.103,0.36c0.086,0.1,0.22,0.15,0.398,0.15
								c0.206,0,0.344-0.049,0.409-0.145c0.062-0.091,0.039-0.194,0.028-0.231c0.093-0.067,0.799-0.55,1.746-0.55
								c0.164,0,0.328,0.015,0.489,0.043c0.371,0.065,0.628,0.203,0.926,0.363c0.562,0.302,1.199,0.643,2.848,0.643
								c0.519,0,1.117-0.035,1.779-0.105l0.014-0.001l0.002-0.014l1.436-10.633l0.002-0.016l-0.015-0.004
								c-0.009-0.002-0.945-0.248-1.195-1.08l-0.005-0.018l-0.017,0.006c-0.046,0.015-4.631,1.518-9.375,1.518
								c-3.007,0-5.436-0.593-7.217-1.764L25.607,54.94L25.607,54.94z"/>
						</g>
						<path fill="#FFFFFF" stroke="#00155C" stroke-width="0.0375" stroke-miterlimit="22.926" d="M33.748,65.556
							c0,0,1.151-0.483,2.329-0.44c1.174,0.041,2.742,1.328,4.876,0.963l1.271-10.864c0,0-1.29,0.344-2.161,0
							c-0.866-0.349-3.047-1.824-6.321-0.604c0,0-1.646-0.99-4.211-0.186c-2.568,0.803-2.983,0.789-3.914,0.541l0.957,10.946
							c0,0,1.633,0.31,3.46-0.542C31.859,64.522,33.748,65.556,33.748,65.556z"/>
					</g>
					<path fill="none" stroke="#FFFFFF" stroke-width="0.0375" stroke-miterlimit="22.926" d="M40.953,66.08
						c0,0-0.043,0.644,1.043,0.861"/>
					<path fill="none" stroke="#FFFFFF" stroke-width="0.0375" stroke-miterlimit="22.926" d="M26.573,65.914
						c0,0,0.015,0.665-1.046,0.784"/>
				</g>
				<g>
					<path fill="#00155C" d="M36.881,57.32c0.024,0.036,0.041,0.059,0.062,0.085h0.005L36.881,57.32z"/>
					<path fill="#D3070F" d="M36.943,57.405c-0.021-0.026-0.037-0.049-0.062-0.085l-0.018-0.026h-2.988v0.085l1.454,0.279v3.319
						c-0.209,0.033-0.521,0-0.734,0c-0.232-1.159-1.108-1.507-1.964-1.372c-0.499,0.076-0.982,0.3-1.349,0.634
						c-3.994-3.012,2.897-6.921,5.581-2.945c0.018,0.01,0.018,0.02,0.018,0.026l0.066,0.085H36.943
						c0.24,0.395,0.454,0.838,0.606,1.364h0.353c0,0,0,0,0.012,0v-3.689h-0.205l-0.159,1.107c-6.246-3.318-12.902,2.582-6.636,4.791
						c-1.067,3.054,2.868,4.139,4.79,2.208l0.734,0.371v-2.211c0.369,0,1.476-0.435,1.476-0.734v-0.49
						c-0.364,0.49-1.106,0.735-1.476,0.735v-3.198L36.943,57.405z M32.75,60.239c0,0,0.737,0,0.737,0.738
						c-0.359,0-1.098,0-1.838-0.366C32.015,60.239,32.389,60.239,32.75,60.239z M35.33,62.457c-1.538,1.531-4.652,1.837-4.066-1.395
						c1.125,0.282,1.485,0.282,2.234,0.372c0.047,0.437-0.226,0.939-0.978,1.42c0.771,0.158,2.074-0.033,2.023-1.389l0.785-0.006
						V62.457z"/>
				</g>
				<path fill="#FFED00" d="M13.572,20.98c-0.514-0.35-0.582-0.686-0.235-1.193c-0.609-0.11-0.791-0.375-0.66-0.966
					c-0.589,0.122-0.868-0.057-0.975-0.659c-0.501,0.344-0.838,0.268-1.194-0.241c-0.347,0.509-0.684,0.585-1.183,0.241
					c-0.108,0.602-0.38,0.781-0.974,0.659c0.131,0.591-0.049,0.856-0.651,0.966c0.338,0.507,0.268,0.843-0.246,1.193
					c0.514,0.347,0.584,0.686,0.246,1.193c0.603,0.103,0.782,0.382,0.651,0.966c0.594-0.133,0.865,0.056,0.974,0.657
					c0.499-0.344,0.836-0.269,1.183,0.239c0.356-0.507,0.693-0.583,1.194-0.239c0.106-0.601,0.386-0.79,0.975-0.657
					c-0.131-0.584,0.051-0.863,0.66-0.966C12.99,21.666,13.058,21.326,13.572,20.98z"/>
				<g>
					<g>
						<path fill="#FFFFFF" d="M45.005,62.713c-0.009,0.016-0.018,0.031-0.021,0.048c-0.081,0.068-0.124,0.122-0.124,0.122
							S44.908,62.817,45.005,62.713z"/>
					</g>
					<g>
						<path fill="#FFFFFF" d="M39.901,68.161l0.222,0.043c0.691-0.333,2.937-5.138,3.063-4.764c0.119,0.32-0.271,2.003-0.373,2.442
							c-0.692,0.795-1.498,1.586-2.437,2.357l0.076,0.038c0,0,2.817-2.07,4.721-5.676c0.129-0.076,0.28-0.156,0.483-0.232
							c0.554-0.192,1.468-1.41,1.254-1.011c-0.213,0.396-0.127,0.645-1.084,2.673c-0.966,2.033-4.225,2.724-3.343,2.598
							c0.89-0.124,1.463-0.6,1.463-0.6c-1.036,2.03-5.879,3.538-5.879,3.538C38.28,69.439,39.901,68.161,39.901,68.161z"/>
					</g>
					<g>
						<path fill="#FFFFFF" d="M45.005,62.713c-0.098,0.103-0.146,0.17-0.146,0.17s0.043-0.054,0.124-0.122
							c-0.546,1.016-1.237,2.047-2.128,3.064c0.329-0.83,0.506-2.683,0.506-2.683c1.381-1.32,1.582-3.825,1.582-3.825l0.273,2.547
							c0-0.008,0.008-0.021,0.008-0.021c0.058-0.333,0.312-6.176,0.312-6.176s0.018-0.172,0.407-1.023
							c0.381-0.863,0.347-2.689,0.347-2.689c0.045,0.135,0.077,0.267,0.115,0.397C46.728,53.669,47.503,58.006,45.005,62.713z"/>
					</g>
					<g>
						<path fill="#FFFFFF" d="M46.406,52.352c-0.064-0.253-0.115-0.397-0.115-0.397s0.736,0.521,1.277,2.022
							c0.428,1.161,0.085,1.726-0.074,1.921c0.49-0.499,0.295-1.075,0.295-1.075c0.132,0.363,0.38,1.303,0.343,1.523
							c-0.036,0.217-0.376,0.893-0.31,0.78c0.069-0.112,0.347-0.696,0.347-0.696c0.197,0.576-0.073,1.98-0.073,1.98
							s0.016,0.297-0.384,0.63c-0.393,0.327-0.446,0.629-0.43,0.564c0.017-0.068,0.154-0.228,0.407-0.422
							c0.243-0.183,0.338-0.475,0.338-0.475c-0.115,0.762-0.983,2.226-1.208,2.505c-0.232,0.278-0.626,0.711-1.188,1.028
							c-0.162,0.093-0.305,0.187-0.405,0.268C46.606,59.872,47.483,56.416,46.406,52.352z"/>
					</g>
					<g>
						<path fill="#FFFFFF" d="M46.291,51.955c0,0,0.051,0.144,0.115,0.397C46.368,52.221,46.336,52.09,46.291,51.955z"/>
					</g>
				</g>
				<g>
					<g>
						<path fill="#FFFFFF" d="M23.161,62.713c0.006,0.016,0.01,0.031,0.019,0.048c0.084,0.068,0.121,0.122,0.121,0.122
							S23.259,62.817,23.161,62.713z"/>
					</g>
					<g>
						<path fill="#FFFFFF" d="M28.255,68.161l-0.214,0.043c-0.701-0.333-2.93-5.138-3.068-4.764c-0.11,0.32,0.271,2.003,0.372,2.442
							c0.694,0.795,1.501,1.586,2.439,2.357l-0.073,0.038c0,0-2.82-2.07-4.726-5.676c-0.119-0.076-0.279-0.156-0.475-0.232
							c-0.559-0.192-1.471-1.41-1.261-1.011c0.22,0.396,0.136,0.645,1.093,2.673c0.959,2.033,4.223,2.724,3.329,2.598
							c-0.885-0.124-1.455-0.6-1.455-0.6c1.045,2.03,5.877,3.538,5.877,3.538C29.876,69.439,28.255,68.161,28.255,68.161z"/>
					</g>
					<g>
						<path fill="#FFFFFF" d="M23.161,62.713c0.099,0.103,0.14,0.17,0.14,0.17s-0.037-0.054-0.121-0.122
							c0.545,1.016,1.243,2.047,2.124,3.064c-0.334-0.83-0.507-2.683-0.507-2.683c-1.38-1.32-1.576-3.825-1.576-3.825l-0.277,2.547
							c0-0.008,0-0.021,0-0.021c-0.073-0.333-0.324-6.176-0.324-6.176s-0.017-0.172-0.397-1.023c-0.389-0.863-0.35-2.689-0.35-2.689
							c-0.043,0.135-0.082,0.267-0.115,0.397C21.434,53.669,20.659,58.006,23.161,62.713z"/>
					</g>
					<g>
						<path fill="#FFFFFF" d="M21.756,52.352c0.068-0.253,0.115-0.397,0.115-0.397s-0.74,0.521-1.283,2.022
							c-0.422,1.161-0.092,1.726,0.072,1.921c-0.484-0.499-0.293-1.075-0.293-1.075c-0.127,0.363-0.38,1.303-0.338,1.523
							c0.035,0.217,0.374,0.893,0.314,0.78c-0.069-0.112-0.356-0.696-0.356-0.696c-0.188,0.576,0.085,1.98,0.085,1.98
							s-0.019,0.297,0.37,0.63c0.4,0.327,0.463,0.629,0.432,0.564c-0.011-0.068-0.15-0.228-0.395-0.422
							c-0.249-0.183-0.348-0.475-0.348-0.475c0.119,0.762,0.99,2.226,1.218,2.505c0.228,0.278,0.617,0.711,1.176,1.028
							c0.162,0.093,0.3,0.187,0.407,0.268C21.561,59.872,20.685,56.416,21.756,52.352z"/>
					</g>
					<g>
						<path fill="#FFFFFF" d="M21.872,51.955c0,0-0.047,0.144-0.115,0.397C21.79,52.221,21.829,52.09,21.872,51.955z"/>
					</g>
				</g>
				
					<line fill="#FFFFFF" stroke="#000000" stroke-width="0.0375" stroke-miterlimit="22.926" x1="33.741" y1="54.612" x2="33.741" y2="65.486"/>
				<g>
					<g>
						
							<linearGradient id="SVGID_5_" gradientUnits="userSpaceOnUse" x1="12606.3789" y1="29.1443" x2="12629.2207" y2="29.1443" gradientTransform="matrix(1 0 0 1 -12569.1768 0)">
							<stop  offset="0" style="stop-color:#FAC800"/>
							<stop  offset="0.2351" style="stop-color:#F9C300"/>
							<stop  offset="0.5202" style="stop-color:#F6B400"/>
							<stop  offset="0.83" style="stop-color:#F19C00"/>
							<stop  offset="1" style="stop-color:#ED8B00"/>
						</linearGradient>
						<path fill="url(#SVGID_5_)" stroke="#000000" stroke-width="0.1427" d="M46.276,31.835c0,0,0.077-0.247,0.211-0.111
							c0.139,0.12,0.167,1.103,0.677,1.971c2.738,4.692,2.28,8.624,2.38,8.54c4.399-3.3,12.338-10.803,7.791-18.291
							c0,0,0.412-0.088,2.205-1.971c1.792-1.874-1.601-1.737-3.8-2.406c-2.196-0.666-5.404-2.828-6.886-3.25
							c-1.474-0.421-3.687-0.28-5.343,0c-1.652,0.274-5.053,0.209-5.753,0.104c-0.703-0.109-0.645,1.158-0.345,1.481
							c0,0-0.016,0.392,0.125,0.781c0.14,0.385-0.762,1.474,0.214,2.649c0,0-0.156,2.679,0.291,2.679
							c0.46,0,0.604-1.402,0.643-1.876c0,0,0.576,0.594,0.623,0.728c0.063,0.147-0.028,1.134,0.195,1.094
							c0.232-0.036,0.406-0.086,0.391-0.188c-0.019-0.109,2.426,3.703,0.951,4.832c0,0-1.072-1.009-1.5-1.84
							c-0.416-0.851-0.507,1.086-0.128,1.595c0.369,0.496-0.559-0.458-0.776-1.565c-0.207-1.108-0.791,1.239,0.397,2.454
							c0,0,0.458,0.403,0.423,1.507c-0.039,1.113,0.444,1.752,0.605,1.888c0.162,0.145,1.485,1.776,3.539-0.317l0.047-0.07
							c0,0,1.289-0.036,1.626-0.633c0,0,0.283,0.195,0.388,0.195c0.1,0,0.174-0.018,0.641,0.119L46.276,31.835z"/>
						<path opacity="0.7" fill="#FFFFFF" d="M47.948,19.535c0,0,5.978,1.107,5.212,5.516c0,0,0.02,0.503,0.068,0.63
							c0.058,0.125,0.77-4.94-3.11-8.074c0,0-0.923-0.017-1.182,1.022C48.721,19.472,47.948,19.535,47.948,19.535z"/>
						<path opacity="0.7" fill="#FFFFFF" d="M50.118,17.608c0,0-0.909-0.093-1.264,1.253c-0.281,1.017-3.401,1.099-4.17,0.352
							c-0.77-0.746-1.042-0.729-0.21-0.962C48.006,17.296,48.876,17.186,50.118,17.608z"/>
						<path opacity="0.35" fill="#FFFFFF" d="M44.056,17.832c0,0-0.381,0.498-0.142,0.635c0.061,0.02,0.438,0.474,0.47,0.508
							c0.039,0.025,0.393,0.1,0.435,0c0.039-0.112,0.24-0.137,0.322-0.115c0.171,0.049,0.351,0.243,0.63,0.295
							c0.278,0.047,1.278,0.1,1.629,0c0.218-0.062,0.602-0.536,0.278-0.855c-0.385-0.377-0.35-0.377-0.124-0.468
							c0.23-0.09,1.634-0.413,2.377-0.225c0.772,0.187-1.477-0.375-2.531-0.141c-1.032,0.226-2.259,0.647-2.259,0.647l-0.577,0.313
							l-0.433-0.419"/>
						<path opacity="0.52" fill="#924F00" d="M41.448,17.255c0,0,0.623,0.071,0.916,0.515c0.29,0.437-0.146,0.302,0.472,0.61
							c0.626,0.31,1.251,0.959,1.024,2.159c-0.228,1.189,2.75,4.065,3.232,4.401c0.486,0.328-2.408-1.836-3.232-3.368
							c-0.012-0.015-0.017-0.022-0.022-0.033c-0.806-1.54-0.635-0.892-0.47-1.167c0.144-0.287,0.217-1.019-0.035-1.247
							c-0.27-0.217-0.887-0.608-1.026-0.671c-0.136-0.075-0.227-0.062-0.199-0.342c0.031-0.286-0.281-0.56-0.341-0.599
							C41.71,17.466,41.448,17.255,41.448,17.255z"/>
						<g>
							<path fill="#1F140F" d="M44.043,18.116c-0.067-0.052-0.128,0.104-0.174,0.097c-0.095-0.032,0.379-0.633,0.379-0.633
								s0.341,0.471,0.473,0.428c0.146-0.044,2.272-1.133,4.587-0.51c0.009,0,0.015,0,0.025,0.004
								c2.309,0.631-1.754-0.992-4.696,1.198C44.467,18.813,44.203,18.244,44.043,18.116z"/>
							<path fill="#1F140F" d="M45.436,18.072c0,0,0.409,1.048,1.842,0.653c0,0,0.135-0.025,0.097-0.14
								c-0.046-0.118,0.229,0.228-0.292,0.372c0,0-1.418,0.315-2.079-0.597L45.436,18.072z"/>
							<path fill="#1F140F" d="M46.551,17.622c0,0,0.257,0.494-0.173,0.849c-0.456,0.364,1.259,0.035,0.529-0.863L46.551,17.622z"/>
						</g>
						<path fill="#1F140F" d="M41.343,17.255c0.15,0.107,0.882,0.474,0.626,1.023c-0.218,0.445,2.162,0.67,1.135,2.2
							c0,0-0.104,1.412,4.321,4.768c0,0-3.489-3.099-3.914-4.74c0,0,0.856-1.446-1.278-2.192
							C42.233,18.314,42.372,17.351,41.343,17.255z"/>
						<path opacity="0.92" fill="#FFFFFF" d="M41.343,17.255c0.189,0.061,0.882,0.474,0.626,1.023
							c-0.218,0.445,2.162,0.67,1.135,2.2c0,0-0.104,1.412,4.321,4.768c0,0-3.841-2.951-4.265-4.746c0,0,1.188-0.947-1.142-2.132
							C42.019,18.368,42.349,17.613,41.343,17.255z"/>
						
							<linearGradient id="SVGID_6_" gradientUnits="userSpaceOnUse" x1="13240.8799" y1="21.3535" x2="13255.2031" y2="31.3834" gradientTransform="matrix(1 0 0 1 -13204.6455 0)">
							<stop  offset="0" style="stop-color:#FFFFFF;stop-opacity:0.69"/>
							<stop  offset="1" style="stop-color:#FFFFFF"/>
						</linearGradient>
						<path opacity="0.8" fill="url(#SVGID_6_)" d="M43.078,23.07c-1.085-1.426-2.633-3.13-2.395-4.131
							c0.239-1-0.816-1.036-0.816-1.036c-1.597,0.06-2.284,1.513-2.485,1.975c-0.188,0.457-0.108,0.85,0.686,1.118
							c0.792,0.278,1.086-1.754,2.984,0.246c1.917,1.991,2.502,3.905,2.662,3.985c0.173,0.077,0.049,0.588,0.015,0.945
							c-0.049,0.354-0.175,1.189-0.456,1.667c-0.272,0.479-0.788,0.945-1.447,1.189c-0.646,0.253-1.012,0.219-1.397,0.162
							c-0.384-0.059-1.162,0.32-1.162,0.32l0.063,0.615c0.229,1.786,1.25,2.663,2.089,2.787c0.825,0.123,0.852-0.326,2.122-0.851
							c0,0,1.833-0.713,1.905-1.104c0.063-0.38,7.075,3.17,7.715-5.905c0,0-1.227,8.853-7.666,2.21
							C43.802,25.518,44.167,24.491,43.078,23.07z"/>
						<path fill="#1F140F" d="M46.963,31.759c4.352,6.704,2.481,9.984,4.052,8.545c11.184-10.198,5.778-16.448,5.778-16.448
							s0.657-0.237,1.643-1.306c1.902-2.055,0.298-1.77,0.298-1.77c-1.423,0.597-3.302,0.227-2.961,0.549
							c1.138,1.106,1.078,1.88,0.994,1.418c-0.089-0.454-1.388-1.244-1.919-1.685c-0.833-0.694,7.407-0.167,2.025-0.736
							c-2.974-0.317-3.97-1.725-6.646-3.022c-2.673-1.307-5.959-0.862-5.959-0.862c-4.648,0.8-7.132-0.22-5.396,0.687
							C40.445,17.929,40,17.923,40,17.923c-2.863,0.731-2.657,3.259-1.771,2.878c1.038-0.453,1.118-0.518,1.348-0.564
							c0.146-0.028,0.424,0.028,0.775,0.217c0.351,0.189,2.941,3.034,3.59,4.585c0.662,1.546,1.201,2.178,1.201,2.178
							s-1.01-0.914-1.201-0.343c-0.188,0.575,0.437,5.152,0.075,2.93c-0.358-2.229-0.828-1.592-0.828-1.592
							c-1.101,1.659-1.952,1.287-2.462,1.047c-0.514-0.229-1.331,0.275-1.331,0.275s0.361,3.162,2.163,3.12
							c1.896-0.047,1.427-1.608,1.427-1.608s1.635,0.389,1.785-0.024c0.15-0.411,0.349-0.833,0.739-0.442
							c0.406,0.38,0.667,0.489,0.814,0.458c0.15-0.038,0.15,0.1,0.384,0.114c0.229,0.013,6.153,0.786,6.453-6.097
							c0,0,1.178,4.31-3.07,6.272c0,0-3.436,1.021-3.887,0.75c0,0-0.303-0.218-0.553-0.235c-0.236-0.022-0.356-0.034-0.57-0.217
							c0,0-0.318,0.633-1.626,0.633c0,0-1.185,1.481-2.52,1.058c-1.347-0.424-1.645-1.292-1.672-2.872c0,0-0.094-0.765-0.423-1.193
							c-0.827-1.09-0.756-2.359-0.626-2.644c0.138-0.289,0.229,0.165,0.229,0.165c0.218,1.068,1.016,1.846,0.867,1.728
							c-0.153-0.13-0.402-0.648-0.332-1.465c0.093-0.812,0.32-0.364,0.32-0.364c0.57,1.054,1.549,1.936,1.549,1.936
							c1.387-1.324-0.951-4.832-0.951-4.832c-0.015,0.148-0.239,0.162-0.434,0.187c-0.181,0.02-0.022-0.9-0.152-1.093
							c-0.116-0.175-0.623-0.728-0.623-0.728c0,0.994-0.365,1.972-0.699,1.853c-0.341-0.117-0.234-2.656-0.234-2.656
							c-0.976-1.257-0.078-2.282-0.202-2.59c-0.118-0.305-0.137-0.84-0.137-0.84c-0.22-0.275-0.229-0.705-0.229-0.705
							c-0.07-0.914,0.701-0.758,0.964-0.746c0.261,0.025,0.61,0.025,0.61,0.025c2.309,0.083,4.051-0.12,5.328-0.252
							c1.286-0.124,3.803-0.373,5.173,0.238c1.376,0.605,2.087,1.025,4.139,2.105c2.051,1.083,3.673,1.098,5.456,1.546
							c1.781,0.438,1.526,0.933,0.293,2.288c-1.239,1.356-1.813,1.543-1.813,1.543c0.945,1.692,5.021,8.183-7.403,18.034
							c-1.25,1.002,1-0.798-2.617-7.995c0,0-1.087-2.112-1.233-2.224C45.94,31.645,46.963,31.759,46.963,31.759z"/>
						<path fill="none" d="M39.309,22.864c-0.116-0.175-0.623-0.728-0.623-0.728c0,0.994-0.365,1.972-0.699,1.853"/>
						<path fill="#FFFFFF" d="M40.251,21.024c0,0-0.848,1.319-0.651,2.646c0,0,0.107,0.248-0.031,0.262
							c-0.81,0.135-1.556-3.325-0.051-3.19C39.517,20.742,39.895,20.723,40.251,21.024z"/>
						<g>
							<path fill="#D7D9DD" d="M38.459,21.321c0,0-0.518-0.373-0.889-0.07c-0.023,0.02-0.138,2.881,0.625,2.761
								C38.569,23.958,38.459,21.321,38.459,21.321"/>
							<path fill="none" stroke="#1F140F" stroke-width="0.1406" d="M38.124,24.083c-0.782,0.062-0.647-2.832-0.589-3.087
								c0,0,0.077-0.104,0.481,0c0.262,0.071,0.58,0.329,0.554,0.368C38.29,21.806,38.54,24.05,38.124,24.083z"/>
						</g>
						<path fill="#FFFFFF" d="M37.57,21.251c-0.085,0.059-0.148,2.768,0.574,2.761c0,0-0.626-2.109,0.314-2.641
							C38.459,21.371,38.029,20.933,37.57,21.251z"/>
						<path fill="none" stroke="#1F140F" stroke-width="0.1406" d="M40.365,20.979c0,0-0.971,1.359-0.658,2.754
							c0.113,0.531-1.214,0.549-1.021-2.442C38.686,21.291,39.078,20.138,40.365,20.979z"/>
						<path fill="#FFFFFF" d="M39.154,26.545c-0.108,0.006-0.429,1.271,0.183,1.984c0,0,0.438,0.601,0.708,0.718
							c0,0,0.186-0.034,0.347-0.042c0,0-1.344-1.403-1.141-2.602C39.251,26.602,39.208,26.537,39.154,26.545z"/>
						<path fill="#FFFFFF" d="M40.045,29.246l-0.65,0.285l-0.316,0.17c0,0,0.043-0.104-0.238-0.455
							c-0.281-0.351-1.016-1.425-0.626-2.644l0.058-0.091C38.271,26.511,38.168,28.738,40.045,29.246z"/>
						<path fill="#D7D9DD" d="M40.251,21.024c0,0-0.848,1.319-0.651,2.646c0,0,0.107,0.26-0.031,0.262
							c-0.125,0.013-1.109-1.594-0.051-3.19C39.517,20.742,39.895,20.723,40.251,21.024z"/>
						<path fill="#F9D295" d="M43.032,23.932c0,0-0.644,0.087-0.683,1.248c-0.043,1.155-0.02-0.435-0.229-0.319
							c-0.215,0.125-0.818,0.608-0.767,1.252c0.167,1.997-0.479,2.32-0.507,2.491c0,0,0.463,0.46,1.157,0.268
							c0.784-0.224,1.387-0.404,1.743-2.849C43.813,25.475,43.567,24.322,43.032,23.932z"/>
						<path fill="#FFFBE1" d="M38.195,16.918c-0.151-0.087-0.616-0.3-0.616,0.236c0,0.545,0.152,0.545,0.152,0.933
							c0,0.384-0.008,0.896,0.239,0.748c0.258-0.163,0.472-0.514,0.929-0.733c0.226-0.115,0.732-0.26,0.732-0.26
							S39.346,17.548,38.195,16.918z"/>
						<path fill="#FFFFFF" d="M44.151,17.7l0.097-0.12c0,0,0.354,0.459,0.452,0.428c0.092-0.028,1.722-0.921,3.906-0.656
							c0,0-2.265-0.038-3.855,0.753C44.751,18.104,44.597,18.185,44.151,17.7z"/>
						<path fill="#1F140F" d="M39.403,29.604c-0.023-0.119,0.781-0.463,1.131-0.397c0,0-0.143-0.579-1.557,0.25
							c0,0,0.101,0.226,0.109,0.289C39.117,29.809,39.403,29.604,39.403,29.604z"/>
						<path fill="#1F140F" d="M39.182,18.684c0,0,4.883,0.335,8.735,2.96C47.918,21.644,45.274,18.7,39.182,18.684z"/>
						<path fill="#1F140F" d="M39.144,19.255c0,0,5.974,1.216,9.222,4.795C48.366,24.05,45.765,20.25,39.144,19.255z"/>
						<path fill="#1F140F" d="M39.266,19.74c0,0,5.807,1.885,7.427,4.87C46.693,24.61,44.203,21.856,39.266,19.74z"/>
						<path fill="#D7D9DD" d="M39.257,26.589c0,0-0.383,0.925,0.931,2.421c0,0,0.374-0.028,0.881,0.12
							C41.311,29.2,39.503,28.239,39.257,26.589z"/>
					</g>
					<path d="M51.395,38.17c-0.717-0.083-0.909-0.971-0.87-1.571c0.045-0.506,0.533-0.717,0.943-0.937
						c0.035-0.024,0.073-0.043,0.111-0.061c0.081-0.036,0.167-0.06,0.259-0.068c0.043,0,0.082,0,0.122,0.006
						c0.159-0.011,0.323,0.014,0.471,0.068c0.037,0.014,0.074,0.028,0.111,0.044c0.125,0.057,0.214,0.155,0.347,0.196
						c0.039,0.023,0.08,0.045,0.115,0.074c0.143,0.105,0.246,0.263,0.285,0.456c0.007,0.039,0.011,0.079,0.007,0.12
						c0,0.036-0.002,0.076-0.002,0.107c0.073,0.353-0.066,0.732-0.344,0.941c-0.039,0.031-0.08,0.056-0.124,0.079
						c-0.18,0.154-0.399,0.263-0.623,0.296c-0.059,0.011-0.114,0.014-0.156,0.028c-0.156,0.118-0.334,0.224-0.525,0.222
						C51.476,38.173,51.434,38.173,51.395,38.17z"/>
					<path d="M56.052,31.08c-0.165-0.012-0.214-0.109-0.282-0.189c-0.011-0.014-0.023-0.029-0.034-0.046
						c-0.009-0.015-0.017-0.032-0.028-0.048c-0.038-0.071-0.063-0.14-0.079-0.211c-0.003-0.016-0.007-0.034-0.012-0.05
						c-0.218-0.246-0.071-0.488,0.123-0.62c0.009-0.002,0.015-0.004,0.02-0.012c0.077-0.18,0.284-0.107,0.392-0.183
						c0.012-0.004,0.02-0.009,0.032-0.012c0.017-0.008,0.033-0.01,0.05-0.011c0.235-0.184,0.574,0.011,0.768,0.202
						c0.011,0.012,0.021,0.025,0.03,0.04c0.079,0.13,0.097,0.3,0.067,0.449c-0.004,0.015-0.006,0.035-0.01,0.05
						c-0.006,0.016-0.008,0.033-0.013,0.047c0.007,0.018,0.019,0.034,0.025,0.054c0.097,0.214-0.209,0.382-0.397,0.407
						c-0.017,0.013-0.031,0.027-0.046,0.034c-0.164,0.126-0.358,0.19-0.577,0.098C56.071,31.08,56.062,31.08,56.052,31.08z"/>
					<path d="M53.123,19.882c-0.085-0.116,0.015-0.264,0.103-0.338c0.078-0.065,0.173-0.027,0.261,0.002
						c0.01,0,0.017,0.003,0.027,0.008c0.015,0.005,0.028,0.012,0.043,0.025c0.006,0.006,0.01,0.013,0.017,0.018
						c0.024,0.02,0.042,0.049,0.055,0.076c0.004,0.005,0.007,0.014,0.009,0.022c0.01,0.024,0.006,0.051,0.021,0.073
						c0,0.011,0.005,0.021,0.005,0.027c0.005,0.036-0.005,0.072-0.025,0.104c-0.004,0.006-0.009,0.01-0.015,0.017
						c-0.005,0.006-0.012,0.01-0.017,0.015c-0.039,0.056-0.112,0.092-0.179,0.081c-0.01-0.003-0.02-0.005-0.028-0.007
						c-0.045-0.005-0.091-0.019-0.126-0.047c-0.009-0.008-0.02-0.013-0.027-0.015c-0.037-0.009-0.076-0.018-0.103-0.046
						C53.135,19.893,53.13,19.886,53.123,19.882z"/>
					<path d="M48.921,16.908c-0.075-0.099,0.012-0.231,0.09-0.299c0.067-0.057,0.151-0.021,0.229,0.004
						c0.01,0,0.017,0.003,0.024,0.005c0.013,0.008,0.024,0.014,0.038,0.024c0.005,0.006,0.011,0.01,0.015,0.014
						c0.021,0.021,0.037,0.042,0.048,0.067c0.003,0.008,0.006,0.014,0.009,0.02c0.008,0.026,0.006,0.047,0.017,0.068
						c0.003,0.006,0.005,0.017,0.006,0.022c0.004,0.031-0.005,0.065-0.022,0.091c-0.003,0.006-0.009,0.013-0.013,0.015
						c-0.005,0.008-0.012,0.012-0.015,0.016c-0.033,0.049-0.101,0.078-0.158,0.07c-0.01,0-0.018-0.002-0.026-0.004
						c-0.039-0.006-0.08-0.019-0.109-0.045c-0.011-0.005-0.018-0.01-0.024-0.014c-0.033-0.003-0.068-0.015-0.092-0.038
						C48.931,16.918,48.925,16.912,48.921,16.908z"/>
					<path d="M51.636,26.666c-0.174-0.229,0.021-0.53,0.205-0.686c0.155-0.125,0.348-0.046,0.527,0.009
						c0.015,0.004,0.032,0.012,0.046,0.017c0.035,0.013,0.064,0.027,0.091,0.053c0.015,0.012,0.026,0.023,0.032,0.035
						c0.049,0.042,0.087,0.097,0.113,0.154c0.006,0.014,0.01,0.029,0.017,0.042c0.021,0.053,0.017,0.106,0.039,0.156
						c0.006,0.016,0.01,0.034,0.013,0.049c0.011,0.074-0.007,0.146-0.052,0.211c-0.009,0.013-0.017,0.026-0.029,0.033
						c-0.011,0.011-0.022,0.021-0.03,0.031c-0.082,0.118-0.228,0.184-0.363,0.165c-0.021-0.003-0.037-0.01-0.057-0.015
						c-0.094-0.006-0.186-0.042-0.258-0.093c-0.018-0.018-0.035-0.029-0.049-0.039c-0.078-0.011-0.159-0.032-0.212-0.084
						C51.658,26.689,51.646,26.677,51.636,26.666z"/>
					<path d="M46.623,27.584c0.166-0.024,0.271,0.119,0.37,0.238c0.01,0.01,0.02,0.02,0.026,0.032
						c0.017,0.022,0.031,0.052,0.039,0.078c0.006,0.015,0.008,0.028,0.008,0.041c0.003,0.009,0.003,0.016,0.006,0.022
						c0.052-0.017,0.104-0.03,0.148-0.038c0.168-0.021,0.271,0.125,0.371,0.241c0.009,0.011,0.02,0.02,0.026,0.033
						c0.019,0.022,0.031,0.047,0.041,0.079c0.005,0.012,0.005,0.025,0.007,0.042c0.015,0.048,0.019,0.103,0.01,0.155
						c-0.001,0.013-0.004,0.027-0.006,0.038c-0.011,0.045-0.035,0.081-0.039,0.129c-0.004,0.011-0.007,0.027-0.015,0.041
						c-0.024,0.053-0.07,0.097-0.129,0.122c-0.013,0.006-0.024,0.009-0.036,0.012c-0.015,0.003-0.025,0.004-0.036,0.008
						c-0.108,0.046-0.242,0.028-0.329-0.046c-0.014-0.011-0.025-0.022-0.034-0.037c-0.063-0.044-0.113-0.111-0.141-0.178
						c-0.007-0.02-0.011-0.035-0.02-0.049c-0.024-0.023-0.047-0.044-0.066-0.069c-0.004,0-0.007,0-0.009,0.003
						c-0.11,0.048-0.244,0.027-0.329-0.045c-0.012-0.013-0.024-0.023-0.035-0.035c-0.06-0.048-0.112-0.112-0.14-0.182
						c-0.007-0.017-0.012-0.038-0.02-0.049c-0.05-0.043-0.096-0.094-0.109-0.156c-0.006-0.014-0.007-0.025-0.008-0.041
						C46.153,27.737,46.426,27.611,46.623,27.584z"/>
					<path d="M47.793,19.852c-0.082-0.106,0.012-0.246,0.095-0.318c0.074-0.06,0.162-0.023,0.246,0.002
						c0.007,0.004,0.018,0.005,0.024,0.008c0.014,0.005,0.027,0.016,0.04,0.027c0.006,0.003,0.012,0.009,0.016,0.015
						c0.022,0.02,0.041,0.044,0.051,0.072c0.007,0.006,0.009,0.014,0.011,0.017c0.007,0.027,0.007,0.052,0.018,0.075
						c0.002,0.006,0.004,0.015,0.004,0.023c0.004,0.032-0.002,0.066-0.022,0.097c-0.004,0.006-0.011,0.013-0.015,0.015
						c-0.006,0.007-0.012,0.01-0.016,0.015c-0.035,0.054-0.106,0.086-0.169,0.076c-0.008,0-0.017-0.003-0.026-0.006
						c-0.043-0.001-0.084-0.02-0.121-0.043c-0.008-0.008-0.015-0.013-0.021-0.018c-0.037-0.003-0.075-0.014-0.1-0.041
						C47.804,19.864,47.797,19.857,47.793,19.852z"/>
					<path d="M51.907,22.288c-0.082-0.106,0.012-0.249,0.096-0.321c0.072-0.057,0.164-0.02,0.246,0.006
						c0.008,0,0.016,0.002,0.022,0.004c0.017,0.007,0.029,0.016,0.041,0.027c0.008,0.004,0.013,0.012,0.018,0.017
						c0.021,0.018,0.04,0.045,0.052,0.07c0.005,0.007,0.007,0.014,0.007,0.02c0.008,0.024,0.008,0.049,0.02,0.072
						c0.002,0.008,0.005,0.016,0.005,0.025c0.004,0.032-0.003,0.065-0.025,0.098c-0.002,0.006-0.007,0.01-0.013,0.015
						c-0.004,0.006-0.011,0.009-0.014,0.015c-0.037,0.053-0.107,0.085-0.173,0.078c-0.007-0.004-0.015-0.006-0.024-0.008
						c-0.044-0.004-0.084-0.021-0.121-0.043c-0.006-0.007-0.016-0.015-0.022-0.021c-0.037-0.005-0.074-0.015-0.098-0.042
						C51.919,22.299,51.912,22.292,51.907,22.288z"/>
					<path d="M54.956,24.325c-0.174-0.23,0.025-0.533,0.207-0.688c0.157-0.128,0.353-0.048,0.532,0.007
						c0.017,0.005,0.032,0.011,0.049,0.014c0.033,0.012,0.064,0.033,0.093,0.057c0.012,0.011,0.024,0.023,0.031,0.034
						c0.047,0.043,0.086,0.097,0.112,0.156c0.007,0.013,0.013,0.026,0.017,0.042c0.021,0.053,0.018,0.107,0.044,0.156
						c0.003,0.017,0.007,0.036,0.009,0.053c0.012,0.071-0.006,0.144-0.048,0.211c-0.011,0.01-0.021,0.024-0.032,0.035
						c-0.012,0.007-0.024,0.02-0.032,0.027c-0.082,0.12-0.229,0.185-0.365,0.165c-0.02-0.004-0.039-0.008-0.059-0.013
						c-0.096-0.008-0.185-0.039-0.26-0.096c-0.019-0.012-0.035-0.027-0.052-0.038c-0.075-0.009-0.157-0.03-0.21-0.088
						C54.981,24.349,54.967,24.334,54.956,24.325z"/>
				</g>
			</g>
		</g>
	</g>
	<g>
		<path fill="#FFFFFF" d="M85.938,33.833l-0.703,0.137l-0.983-3.7c-0.676-0.203-1.408-0.325-2.202-0.325
			c-1.896,0-3.362,0.716-4.403,2.126c-1.038,1.44-1.56,3.275-1.56,5.588c0,2.456,0.617,4.415,1.838,5.873
			c1.222,1.457,2.924,2.184,5.098,2.184c1.203,0,2.479-0.245,3.821-0.741l0.162,0.741c-1.715,1.166-3.658,1.752-5.818,1.752
			c-2.804,0-5.069-0.843-6.796-2.531c-1.733-1.702-2.604-3.924-2.604-6.687c0-2.942,0.954-5.265,2.849-6.992
			c1.898-1.718,4.376-2.566,7.428-2.566c1.513,0,3.06,0.173,4.639,0.525l0.074,0.129L85.938,33.833z"/>
		<path fill="#FFFFFF" d="M101.682,40.782c0,1.965-0.66,3.543-1.972,4.761c-1.297,1.223-2.994,1.82-5.087,1.82
			c-2.027,0-3.654-0.564-4.863-1.712c-1.209-1.148-1.811-2.644-1.811-4.495c0-1.879,0.624-3.434,1.906-4.633
			c1.27-1.216,2.985-1.811,5.138-1.811c2.057,0,3.678,0.552,4.881,1.661C101.079,37.488,101.682,38.95,101.682,40.782
			 M91.948,40.892c0,1.558,0.237,2.829,0.702,3.814c0.475,0.958,1.214,1.452,2.241,1.452c0.965,0,1.669-0.426,2.12-1.291
			c0.448-0.852,0.678-2.125,0.678-3.822c0-1.594-0.244-2.848-0.712-3.754c-0.479-0.919-1.222-1.363-2.234-1.363
			c-0.945,0-1.653,0.404-2.106,1.228C92.179,37.98,91.948,39.222,91.948,40.892"/>
		<path fill="#FFFFFF" d="M102.537,28.594c2.146-0.312,4.024-0.649,5.615-0.999l0.143,0.109c-0.048,1.189-0.074,2.449-0.074,3.795
			v11.903c0,1.02,0,1.735,0.026,2.141c0.013,0.223,0.123,0.372,0.312,0.436l1.621,0.441l0.033,0.621
			c-1.278-0.034-2.54-0.039-3.788-0.039c-1.281,0-2.524,0.005-3.78,0.039l-0.068-0.621l1.632-0.441
			c0.205-0.057,0.314-0.184,0.326-0.387c0.021-0.346,0.027-0.901,0.027-1.699V32.747c0-1.119-0.012-2.161-0.055-3.114l-1.89-0.513
			L102.537,28.594z"/>
		<path fill="#FFFFFF" d="M123.224,46.158c-1.595,0.802-3.252,1.205-5.024,1.205c-2.093,0-3.81-0.512-5.119-1.536
			c-1.336-1.046-1.998-2.579-1.998-4.585c0-1.926,0.647-3.492,1.918-4.715c1.27-1.208,2.896-1.816,4.863-1.816
			c1.729,0,3.064,0.459,4.01,1.396c0.93,0.94,1.402,2.222,1.402,3.857c0,0.251-0.013,0.514-0.039,0.764h-8.229
			c0,1.735,0.422,2.975,1.273,3.725c0.836,0.755,2.229,1.137,4.162,1.137c0.942,0,1.826-0.082,2.686-0.253L123.224,46.158z
			 M119.366,39.486v-0.303c0-1.176-0.15-2.014-0.45-2.527c-0.296-0.493-0.758-0.756-1.351-0.756c-0.73,0-1.316,0.352-1.754,1.054
			c-0.433,0.704-0.677,1.552-0.746,2.532H119.366z"/>
		<path fill="#FFFFFF" d="M137.916,35.658c2.105-0.323,3.959-0.655,5.549-1l0.15,0.104c-0.061,1.194-0.081,2.45-0.081,3.787v4.854
			c0,1.02,0.012,1.735,0.02,2.141c0.019,0.223,0.129,0.372,0.329,0.436l1.602,0.441l0.036,0.621
			c-1.257-0.034-2.529-0.039-3.782-0.039c-1.27,0-2.535,0.005-3.781,0.039l-0.057-0.621l1.62-0.441
			c0.204-0.057,0.315-0.184,0.332-0.387c0.015-0.346,0.021-0.901,0.021-1.699v-4.138c0-1.127-0.015-2.154-0.053-3.098l-1.839-0.483
			L137.916,35.658z M143.567,30.405c0,0.585-0.18,1.066-0.575,1.432c-0.377,0.378-0.883,0.553-1.497,0.553
			c-0.568,0-1.025-0.176-1.393-0.522c-0.36-0.345-0.552-0.786-0.552-1.356c0-0.6,0.196-1.094,0.595-1.437
			c0.363-0.36,0.875-0.532,1.486-0.532c0.578,0,1.037,0.157,1.401,0.484C143.399,29.352,143.567,29.81,143.567,30.405"/>
		<path fill="#FFFFFF" d="M160.142,40.782c0,1.965-0.667,3.543-1.961,4.761c-1.309,1.223-3.021,1.82-5.101,1.82
			c-2.039,0-3.657-0.564-4.866-1.712c-1.209-1.148-1.817-2.644-1.817-4.495c0-1.879,0.639-3.434,1.903-4.633
			c1.276-1.216,2.984-1.811,5.158-1.811c2.045,0,3.682,0.552,4.874,1.661C159.538,37.488,160.142,38.95,160.142,40.782
			 M150.407,40.892c0,1.558,0.231,2.829,0.702,3.814c0.46,0.958,1.214,1.452,2.234,1.452c0.982,0,1.677-0.426,2.129-1.291
			c0.444-0.852,0.674-2.125,0.674-3.822c0-1.594-0.235-2.848-0.715-3.754c-0.481-0.919-1.229-1.363-2.229-1.363
			c-0.948,0-1.653,0.404-2.118,1.228C150.638,37.98,150.407,39.222,150.407,40.892"/>
		<path fill="#FFFFFF" d="M167.382,28.988c1.188,0.026,2.511,0.055,3.968,0.055c1.488,0,2.824-0.028,4.013-0.055l0.068,0.645
			l-1.728,0.479c-0.205,0.055-0.314,0.185-0.34,0.387c-0.007,0.311-0.013,0.647-0.02,1.006c0,0.36-0.007,0.738-0.007,1.148v11.632
			c0,0.853-0.04,1.623-0.115,2.305c-0.066,0.696-0.215,1.298-0.403,1.839c-0.181,0.543-0.451,1.033-0.776,1.45
			c-0.338,0.432-0.771,0.811-1.295,1.149c-0.527,0.338-1.165,0.625-1.928,0.875c-0.747,0.266-1.633,0.494-2.637,0.677l-0.252-0.765
			c0.828-0.354,1.49-0.776,1.954-1.238c0.456-0.441,0.813-0.942,1.051-1.524c0.243-0.579,0.392-1.225,0.461-1.945
			c0.064-0.728,0.088-1.537,0.088-2.437V32.7c0-0.422-0.009-0.823-0.009-1.176c0-0.35-0.006-0.66-0.016-0.956
			c-0.005-0.225-0.12-0.364-0.292-0.419l-1.747-0.516L167.382,28.988z"/>
		<path fill="#FFFFFF" d="M188.135,46.158c-1.585,0.802-3.261,1.205-5.014,1.205c-2.115,0-3.815-0.512-5.139-1.536
			c-1.326-1.046-1.986-2.579-1.986-4.585c0-1.926,0.643-3.492,1.918-4.715c1.271-1.208,2.894-1.816,4.859-1.816
			c1.737,0,3.067,0.459,3.998,1.396c0.946,0.94,1.42,2.222,1.42,3.857c0,0.251-0.012,0.514-0.041,0.764h-8.225
			c0,1.735,0.42,2.975,1.266,3.725c0.851,0.755,2.232,1.137,4.164,1.137c0.931,0,1.824-0.082,2.68-0.253L188.135,46.158z
			 M184.275,39.486v-0.303c0-1.176-0.148-2.014-0.444-2.527c-0.291-0.493-0.745-0.756-1.363-0.756c-0.719,0-1.311,0.352-1.742,1.054
			c-0.435,0.704-0.682,1.552-0.741,2.532H184.275z"/>
		<path fill="#FFFFFF" d="M203.79,36.537v6.83c0,0.813,0,1.513,0.026,2.108c0.018,0.258,0.119,0.407,0.321,0.467l1.775,0.479
			l0.036,0.621c-1.389-0.034-2.693-0.039-3.951-0.039c-1.281,0-2.537,0.005-3.775,0.039l-0.069-0.621l1.585-0.418
			c0.237-0.061,0.364-0.208,0.367-0.41c0.021-0.534,0.044-1.089,0.044-1.699v-7.357h-5.436v6.83c0,0.813,0.003,1.513,0.028,2.108
			c0.012,0.258,0.132,0.407,0.328,0.467l1.761,0.479l0.044,0.621c-1.377-0.034-2.699-0.039-3.945-0.039
			c-1.283,0-2.551,0.005-3.792,0.039l-0.063-0.621l1.589-0.418c0.236-0.061,0.366-0.208,0.375-0.41
			c0.018-0.534,0.026-1.089,0.026-1.699v-7.419l-1.874-0.411l-0.116-0.689l2.004-0.174c0-2.271,0.547-4.081,1.637-5.403
			c1.082-1.338,2.594-1.999,4.525-1.999c1.02,0,1.943,0.119,2.788,0.363c-0.275,1.212-0.501,2.425-0.681,3.646l-0.702,0.136
			l-0.804-2.887c-0.131-0.013-0.279-0.042-0.453-0.042c-0.904,0-1.568,0.43-2.012,1.283c-0.447,0.864-0.662,2.429-0.662,4.717v0.158
			h5.45c0-2.375,0.54-4.241,1.612-5.571c1.1-1.328,2.601-2.005,4.536-2.005c1.025,0,1.946,0.123,2.796,0.366
			c-0.277,1.215-0.497,2.429-0.675,3.655l-0.715,0.128l-0.799-2.871c-0.134-0.036-0.282-0.048-0.458-0.048
			c-0.903,0-1.573,0.434-2.008,1.283c-0.448,0.865-0.664,2.433-0.664,4.72v0.345h3.11v1.365H203.79z"/>
		<path fill="#FFFFFF" d="M219.223,46.158c-1.585,0.802-3.269,1.205-5.023,1.205c-2.092,0-3.808-0.512-5.133-1.536
			c-1.331-1.046-1.98-2.579-1.98-4.585c0-1.926,0.633-3.492,1.907-4.715c1.275-1.208,2.899-1.816,4.868-1.816
			c1.736,0,3.059,0.459,4.004,1.396c0.929,0.94,1.412,2.222,1.412,3.857c0,0.251-0.018,0.514-0.039,0.764h-8.227
			c0,1.735,0.421,2.975,1.267,3.725c0.85,0.755,2.232,1.137,4.15,1.137c0.944,0,1.85-0.082,2.693-0.253L219.223,46.158z
			 M215.363,39.486v-0.303c0-1.176-0.148-2.014-0.445-2.527c-0.299-0.493-0.751-0.756-1.365-0.756c-0.724,0-1.309,0.352-1.736,1.054
			c-0.439,0.704-0.688,1.552-0.748,2.532H215.363z"/>
		<path fill="#FFFFFF" d="M220.184,35.658c1.985-0.312,3.794-0.624,5.426-0.987l0.205,0.103v1.399
			c1.51-0.973,3.104-1.461,4.753-1.461l0.068,0.094c-0.271,1.367-0.54,2.817-0.787,4.377l-0.753,0.12
			c-0.217-0.836-0.434-1.497-0.648-1.956c-0.21-0.448-0.556-0.691-1.007-0.691c-0.428,0-0.978,0.15-1.627,0.447v5.521
			c0,1.331,0.004,2.292,0.026,2.85c0,0.258,0.11,0.407,0.308,0.467L228,46.42l0.029,0.621c-1.418-0.034-2.774-0.039-4.078-0.039
			c-1.23,0-2.474,0.005-3.702,0.039l-0.065-0.621l1.638-0.441c0.205-0.064,0.303-0.192,0.317-0.387c0-0.374,0.017-0.901,0.017-1.588
			v-4.295c0-1.405-0.031-2.422-0.052-3.052l-1.85-0.483L220.184,35.658z"/>
		<path fill="#FFFFFF" d="M238.778,36.173c-0.527-0.136-1.096-0.204-1.725-0.204c-0.76,0-1.396,0.139-1.867,0.416
			c-0.486,0.271-0.739,0.663-0.739,1.175c0,0.379,0.12,0.67,0.333,0.881c0.211,0.186,0.584,0.383,1.096,0.576l2.046,0.719
			c1.209,0.413,2.098,0.924,2.667,1.54c0.568,0.592,0.841,1.298,0.841,2.09c0,1.274-0.533,2.258-1.6,2.949
			c-1.059,0.692-2.456,1.048-4.185,1.048c-1.446,0-2.856-0.292-4.247-0.89c0.291-1.135,0.518-2.254,0.724-3.349l0.648-0.1
			l0.93,2.803c0.513,0.182,1.164,0.283,1.945,0.283c0.729,0,1.324-0.151,1.774-0.418c0.459-0.293,0.685-0.693,0.685-1.205
			c0-0.417-0.143-0.763-0.422-1.039c-0.268-0.284-0.808-0.567-1.643-0.849l-1.54-0.527c-1-0.365-1.771-0.825-2.27-1.379
			c-0.509-0.58-0.759-1.282-0.759-2.091c0-1.254,0.502-2.217,1.49-2.884c0.995-0.667,2.36-1.006,4.093-1.006
			c1.433,0,2.72,0.216,3.873,0.625c-0.258,1.133-0.479,2.197-0.664,3.198l-0.708,0.092L238.778,36.173z"/>
		<path fill="#FFFFFF" d="M256.497,40.782c0,1.965-0.648,3.543-1.958,4.761c-1.295,1.223-3.006,1.82-5.104,1.82
			c-2.026,0-3.649-0.564-4.864-1.712c-1.201-1.148-1.809-2.644-1.809-4.495c0-1.879,0.636-3.434,1.902-4.633
			c1.278-1.216,2.986-1.811,5.151-1.811c2.047,0,3.676,0.552,4.878,1.661C255.885,37.488,256.497,38.95,256.497,40.782
			 M246.773,40.892c0,1.558,0.216,2.829,0.692,3.814c0.47,0.958,1.217,1.452,2.252,1.452c0.959,0,1.652-0.426,2.105-1.291
			c0.454-0.852,0.677-2.125,0.677-3.822c0-1.594-0.227-2.848-0.702-3.754c-0.489-0.919-1.23-1.363-2.242-1.363
			c-0.946,0-1.652,0.404-2.105,1.228C246.989,37.98,246.773,39.222,246.773,40.892"/>
		<path fill="#FFFFFF" d="M257.473,35.658c1.978-0.312,3.788-0.624,5.426-0.987l0.199,0.103v1.383
			c1.452-0.972,2.878-1.445,4.295-1.445c1.257,0,2.229,0.339,2.943,1.027c0.719,0.675,1.066,1.646,1.066,2.888v4.526
			c0,1.082,0.027,1.862,0.027,2.39c0.015,0.223,0.129,0.372,0.347,0.436l1.553,0.441l0.048,0.621
			c-1.23-0.034-2.474-0.039-3.715-0.039c-1.283,0-2.445,0.005-3.48,0.039l-0.052-0.621l1.292-0.377
			c0.193-0.064,0.309-0.204,0.316-0.392c0.015-0.123,0.015-0.405,0.015-0.809v-5.401c0-1.041-0.212-1.805-0.617-2.271
			c-0.418-0.461-1.025-0.682-1.834-0.682c-0.718,0-1.447,0.209-2.204,0.616v5.537c0,1.065,0,2.066,0.013,2.951
			c0.03,0.236,0.121,0.368,0.314,0.417l1.337,0.411l0.022,0.621c-1.062-0.034-2.228-0.039-3.478-0.039
			c-1.27,0-2.53,0.005-3.768,0.039l-0.064-0.621l1.656-0.441c0.19-0.057,0.299-0.184,0.299-0.387
			c0.011-0.546,0.011-1.079,0.011-1.588v-4.24c0-1.115-0.011-2.154-0.053-3.106l-1.838-0.483L257.473,35.658z"/>
		<g>
			<path fill="#FFFFFF" d="M136.203,45.881c-0.792-0.543-1.9-0.817-3.352-0.817c-0.614,0-1.287,0-2.032,0.031
				c-0.741,0.016-1.377,0.016-1.895,0.016c-0.718,0-1.192-0.042-1.404-0.111c-0.232-0.064-0.354-0.218-0.354-0.437
				c0-0.399,0.176-0.911,0.514-1.511c0.769,0.276,1.66,0.423,2.677,0.423c1.624,0,2.942-0.411,3.946-1.228
				c0.993-0.824,1.493-1.917,1.493-3.298c0-0.928-0.31-1.753-0.945-2.476l2.985-0.756l-0.086-0.642
				c-1.129,0.013-2.397,0.034-3.801,0.034c-0.408,0-0.977-0.059-1.718-0.182c-0.77-0.102-1.364-0.154-1.81-0.154
				c-1.702,0-3.05,0.411-4.054,1.221c-0.998,0.811-1.498,1.891-1.498,3.234c0,1.519,0.652,2.645,1.953,3.411
				c-1.311,1.579-1.965,2.781-1.965,3.644c0,0.521,0.239,0.961,0.713,1.297c0.256,0.163,0.825,0.422,1.933,0.5
				c0.339,0.021,0.671,0.028,1,0.028c0.513,0,1.068-0.007,1.654-0.028c0.603-0.026,1.152-0.026,1.656-0.026
				c1.294,0,2.119,0.132,2.509,0.392c0.381,0.254,0.582,0.606,0.582,1.059c0,0.836-0.466,1.528-1.411,2.018
				c-0.935,0.517-2.032,0.756-3.314,0.756c-1.063,0-1.898-0.189-2.513-0.57c-0.621-0.378-0.92-0.9-0.92-1.574
				c0-0.553,0.098-1.027,0.419-1.675c0,0-0.109-0.273-0.581-0.365c-0.474-0.107-0.78,0.136-0.78,0.136
				c-1.142,0.979-1.602,1.819-1.602,2.754c0,0.776,0.487,1.418,1.446,1.911c0.963,0.491,2.276,0.734,3.927,0.734
				c2.019,0,3.816-0.486,5.402-1.442c1.596-0.974,2.392-2.249,2.392-3.855C137.37,47.231,136.976,46.42,136.203,45.881z
				 M128.895,36.578c0.257-0.558,0.718-0.826,1.404-0.826c0.706,0,1.194,0.299,1.473,0.905c0.27,0.608,0.403,1.443,0.403,2.5
				c0,1.091-0.119,1.937-0.371,2.496c-0.249,0.583-0.718,0.864-1.419,0.864c-0.667,0-1.145-0.308-1.438-0.93
				c-0.275-0.599-0.434-1.458-0.434-2.568C128.514,37.94,128.638,37.135,128.895,36.578z"/>
		</g>
	</g>
	<g>
		<g>
			<path fill="#FFFFFF" d="M170.638,59.259l-0.029-0.336c1.104-0.128,2.176-0.27,3.186-0.417l0.06,0.057
				c-0.06,0.753-0.078,4.446-0.078,5.248v1.594c0,0.282,0.004,0.546,0.004,0.772c0,0.231,0,0.438,0,0.606
				c0.015,0.121,0.074,0.194,0.189,0.238L175,67.283l0.022,0.314c-0.807-0.016-1.511-0.016-2.135-0.016
				c-0.614,0-1.329,0-2.122,0.016l-0.02-0.314l1.055-0.262c0.12-0.044,0.176-0.103,0.176-0.208c0-0.182,0-0.36,0.018-0.556
				c0-0.204,0-0.392,0-0.606v-1.041c0-0.435,0-0.85-0.018-1.227c0-0.39-0.012-3.651-0.012-3.996L170.638,59.259z"/>
			<path fill="#FFFFFF" d="M176.185,67.129c2.364-0.354,3.686-1.582,3.961-3.692l-0.015-0.003c-0.488,0.562-1.17,0.836-2.021,0.836
				c-0.692,0-1.3-0.235-1.811-0.711c-0.499-0.482-0.757-1.127-0.757-1.952c0-0.893,0.316-1.623,0.953-2.176
				c0.633-0.563,1.412-0.854,2.306-0.854c0.984,0,1.785,0.333,2.412,1.011c0.617,0.681,0.938,1.543,0.938,2.593
				c0,1.534-0.504,2.805-1.501,3.8c-0.995,0.978-2.453,1.557-4.374,1.731L176.185,67.129z M177.432,61.089
				c0,0.787,0.131,1.384,0.419,1.803c0.275,0.42,0.62,0.637,1.039,0.637c0.405,0,0.721-0.16,0.958-0.479
				c0.239-0.339,0.338-0.792,0.338-1.371c0-0.822-0.124-1.454-0.394-1.874c-0.284-0.448-0.655-0.659-1.124-0.659
				c-0.408,0-0.705,0.167-0.919,0.513C177.539,60.023,177.432,60.483,177.432,61.089z"/>
			<path fill="#FFFFFF" d="M188.627,59.141c-2.351,0.361-3.663,1.616-3.95,3.735h0.012c0.492-0.546,1.164-0.836,2.015-0.836
				c0.705,0,1.305,0.25,1.811,0.729c0.499,0.483,0.763,1.118,0.763,1.932c0,0.902-0.332,1.624-0.953,2.187
				c-0.639,0.563-1.404,0.851-2.308,0.851c-0.979,0-1.789-0.342-2.409-1.016c-0.62-0.671-0.922-1.529-0.922-2.59
				c0-1.586,0.52-2.892,1.572-3.877c1.038-0.992,2.481-1.562,4.293-1.715L188.627,59.141z M187.374,65.231
				c0-0.779-0.129-1.372-0.389-1.797c-0.282-0.426-0.638-0.641-1.055-0.641c-0.4,0-0.722,0.157-0.951,0.487
				c-0.235,0.327-0.361,0.781-0.361,1.359c0,0.799,0.135,1.413,0.402,1.859c0.259,0.449,0.635,0.678,1.138,0.678
				c0.405,0,0.721-0.174,0.928-0.53C187.286,66.283,187.374,65.823,187.374,65.231z"/>
			<path fill="#FFFFFF" d="M190.628,62.575c0.783-0.094,1.375-0.285,1.766-0.578c0.389-0.275,0.591-0.676,0.591-1.154
				c0-0.418-0.143-0.749-0.428-1.011c-0.277-0.251-0.638-0.375-1.094-0.375c-0.493,0-1.03,0.158-1.593,0.492l-0.247-0.53
				c0.78-0.569,1.697-0.843,2.742-0.843c0.736,0,1.342,0.158,1.804,0.501c0.459,0.322,0.701,0.76,0.701,1.311
				c0,0.961-0.759,1.667-2.275,2.113v0.045c0.882,0,1.546,0.165,2.021,0.504c0.475,0.332,0.705,0.823,0.705,1.413
				c0,0.492-0.124,0.925-0.374,1.319c-0.245,0.407-0.622,0.739-1.109,1.029c-0.475,0.279-1.084,0.502-1.807,0.653
				c-0.711,0.16-1.541,0.247-2.466,0.247l-0.057-0.563c0.73-0.059,1.328-0.148,1.816-0.286c0.492-0.15,0.88-0.32,1.199-0.539
				c0.303-0.209,0.518-0.455,0.664-0.736c0.129-0.273,0.193-0.565,0.193-0.865c0-0.511-0.182-0.915-0.545-1.21
				c-0.37-0.29-0.828-0.439-1.388-0.439c-0.274,0-0.542,0.033-0.785,0.075L190.628,62.575z"/>
		</g>
		<g>
			<path fill="#FFFFFF" d="M140.341,59.507c-0.273-0.106-0.567-0.159-0.887-0.159c-0.45,0-0.832,0.132-1.144,0.395
				c-0.313,0.265-0.468,0.604-0.468,1.02c0,0.251,0.049,0.466,0.151,0.645c0.103,0.178,0.238,0.338,0.408,0.478
				c0.171,0.141,0.363,0.267,0.583,0.377c0.22,0.11,0.445,0.22,0.68,0.331c0.259,0.123,0.521,0.258,0.784,0.404
				c0.264,0.146,0.501,0.32,0.708,0.523c0.209,0.201,0.377,0.443,0.505,0.724c0.132,0.28,0.195,0.621,0.195,1.02
				c0,0.862-0.324,1.54-0.975,2.034c-0.65,0.493-1.508,0.739-2.575,0.739c-0.771,0-1.528-0.121-2.277-0.363l-0.037-0.057
				l0.337-2.297l0.396-0.063l0.479,1.95c0.306,0.141,0.645,0.212,1.02,0.212c0.539,0,0.975-0.139,1.304-0.413
				c0.331-0.275,0.495-0.642,0.495-1.1c0-0.26-0.052-0.479-0.152-0.66c-0.103-0.18-0.241-0.342-0.416-0.485
				c-0.175-0.141-0.372-0.269-0.593-0.378c-0.222-0.109-0.45-0.221-0.688-0.331c-0.26-0.128-0.519-0.262-0.777-0.402
				c-0.259-0.14-0.491-0.309-0.695-0.509c-0.204-0.2-0.37-0.439-0.498-0.718c-0.127-0.277-0.19-0.615-0.19-1.01
				c0-0.811,0.31-1.458,0.931-1.938c0.621-0.48,1.427-0.721,2.417-0.721c0.629,0,1.347,0.098,2.148,0.292l0.039,0.06l-0.389,2.053
				l-0.352,0.056L140.341,59.507z"/>
			<path fill="#FFFFFF" d="M142.605,62.204c1.047-0.157,1.962-0.321,2.754-0.491l0.07,0.051c-0.027,0.586-0.039,1.211-0.039,1.875
				v2.402c0,0.506,0.004,0.859,0.012,1.06c0.01,0.114,0.062,0.186,0.16,0.216l0.799,0.222l0.018,0.307
				c-0.629-0.013-1.253-0.019-1.873-0.019c-0.635,0-1.261,0.005-1.875,0.019l-0.033-0.307l0.811-0.222
				c0.098-0.027,0.151-0.09,0.159-0.193c0.009-0.164,0.013-0.443,0.013-0.834v-2.054c0-0.557-0.008-1.069-0.024-1.537l-0.911-0.236
				L142.605,62.204z M145.411,59.602c0,0.293-0.095,0.533-0.285,0.714c-0.189,0.183-0.437,0.275-0.742,0.275
				c-0.28,0-0.51-0.087-0.69-0.257c-0.184-0.173-0.273-0.397-0.273-0.673c0-0.303,0.097-0.54,0.288-0.715
				c0.19-0.174,0.439-0.262,0.745-0.262c0.281,0,0.511,0.08,0.689,0.24C145.32,59.083,145.411,59.308,145.411,59.602z"/>
			<path fill="#FFFFFF" d="M146.933,62.204c0.981-0.145,1.878-0.306,2.691-0.485l0.096,0.051v0.683
				c0.719-0.475,1.428-0.714,2.129-0.714c0.62,0,1.107,0.167,1.46,0.507c0.353,0.338,0.53,0.817,0.53,1.438v2.237
				c0,0.533,0.004,0.925,0.013,1.181c0.002,0.114,0.059,0.186,0.165,0.216l0.771,0.222l0.018,0.307
				c-0.608-0.013-1.22-0.019-1.837-0.019c-0.637,0-1.209,0.005-1.721,0.019l-0.025-0.307l0.638-0.19
				c0.097-0.03,0.15-0.093,0.159-0.191c0.004-0.065,0.007-0.197,0.007-0.402v-2.672c0-0.522-0.102-0.897-0.306-1.124
				c-0.205-0.228-0.508-0.342-0.912-0.342c-0.352,0-0.716,0.103-1.09,0.306v2.743c0,0.53,0.003,1.016,0.011,1.458
				c0.005,0.116,0.056,0.186,0.148,0.212l0.663,0.203l0.013,0.307c-0.525-0.013-1.101-0.019-1.721-0.019
				c-0.634,0-1.256,0.005-1.868,0.019l-0.032-0.307l0.823-0.222c0.093-0.027,0.142-0.09,0.145-0.193
				c0.004-0.272,0.007-0.532,0.007-0.784v-2.097c0-0.556-0.008-1.072-0.025-1.545l-0.911-0.236L146.933,62.204z"/>
			<path fill="#FFFFFF" d="M160.864,67.408c-0.704,0.399-1.435,0.6-2.187,0.6c-0.931,0-1.696-0.271-2.294-0.81
				c-0.6-0.54-0.901-1.26-0.901-2.162c0-0.982,0.326-1.776,0.98-2.384c0.652-0.609,1.483-0.913,2.494-0.913
				c0.643,0,1.261,0.122,1.855,0.363c-0.151,0.599-0.285,1.228-0.4,1.887l-0.351,0.058l-0.491-1.594
				c-0.114-0.042-0.27-0.063-0.465-0.063c-0.484,0-0.883,0.211-1.191,0.633c-0.312,0.424-0.467,0.991-0.467,1.7
				c0,0.83,0.196,1.441,0.589,1.834c0.394,0.392,0.954,0.589,1.681,0.589c0.349,0,0.714-0.04,1.096-0.121L160.864,67.408z"/>
			<path fill="#FFFFFF" d="M167.566,67.408c-0.787,0.399-1.615,0.6-2.485,0.6c-1.038,0-1.884-0.256-2.543-0.77
				c-0.656-0.512-0.984-1.268-0.984-2.266c0-0.954,0.315-1.73,0.947-2.33c0.631-0.601,1.434-0.902,2.414-0.902
				c0.854,0,1.514,0.231,1.979,0.692c0.466,0.462,0.698,1.097,0.698,1.91c0,0.123-0.008,0.25-0.02,0.382h-4.074
				c0,0.854,0.211,1.47,0.629,1.843c0.418,0.374,1.107,0.56,2.063,0.56c0.464,0,0.904-0.04,1.326-0.12L167.566,67.408z
				 M165.653,64.104v-0.153c0-0.578-0.073-0.994-0.22-1.243c-0.148-0.25-0.37-0.376-0.673-0.376c-0.361,0-0.648,0.173-0.863,0.52
				c-0.214,0.346-0.339,0.764-0.373,1.253H165.653z"/>
		</g>
	</g>
</g>
</svg>
